<?xml version="1.0" standalone="no"?>
<!DOCTYPE svg PUBLIC "-//W3C//DTD SVG 20010904//EN"
 "http://www.w3.org/TR/2001/REC-SVG-20010904/DTD/svg10.dtd">
<svg version="1.0" xmlns="http://www.w3.org/2000/svg"
 width="1422.000000pt" height="1422.000000pt" viewBox="0 0 1422.000000 1422.000000"
 preserveAspectRatio="xMidYMid meet">
<metadata>
Created by potrace 1.14, written by Peter Selinger 2001-2017
</metadata>
<g transform="translate(0.000000,1422.000000) scale(0.100000,-0.100000)"
fill="#000000" stroke="none">
<path d="M7065 14170 c-3 -5 -132 -493 -140 -530 -2 -8 -11 -42 -20 -75 -9
-33 -18 -67 -20 -75 -2 -8 -15 -60 -29 -115 -15 -55 -28 -107 -30 -115 -3 -8
-23 -85 -46 -170 -22 -85 -43 -164 -45 -175 -5 -22 -26 -104 -74 -285 -64
-245 -197 -755 -206 -790 -2 -8 -27 -104 -55 -214 -28 -109 -53 -206 -55 -215
-2 -9 -11 -43 -20 -76 -27 -101 -87 -329 -90 -345 -2 -8 -16 -60 -30 -115 -14
-55 -53 -203 -86 -330 -32 -126 -68 -262 -79 -300 -11 -39 -22 -79 -24 -90 -2
-11 -14 -58 -26 -105 -12 -47 -23 -92 -25 -100 -2 -8 -18 -67 -35 -130 -18
-63 -33 -122 -35 -130 -4 -21 -98 -382 -206 -795 -34 -126 -76 -288 -94 -360
-18 -71 -54 -211 -80 -310 -26 -99 -48 -187 -50 -195 -2 -8 -23 -91 -48 -185
-25 -93 -48 -183 -52 -200 -5 -16 -10 -34 -11 -40 -2 -5 -15 -53 -28 -105 -63
-243 -118 -451 -166 -635 -28 -110 -53 -204 -54 -210 -1 -5 -5 -19 -9 -30 -3
-11 -8 -31 -11 -45 -3 -14 -10 -41 -15 -60 -10 -39 -63 -241 -117 -450 -19
-74 -44 -168 -56 -209 -11 -41 -22 -83 -24 -95 -2 -12 -17 -70 -34 -130 -16
-60 -28 -112 -25 -115 4 -7 1985 -5 2055 2 146 15 299 47 440 93 101 34 342
141 348 157 2 4 8 7 14 7 13 0 164 99 233 153 214 166 408 397 537 637 57 105
127 285 162 410 25 89 124 467 131 500 2 8 11 42 20 75 9 33 31 119 50 190 54
211 101 392 135 518 17 64 33 125 35 135 3 9 27 103 54 207 66 255 132 507
137 525 25 101 47 184 59 225 9 28 17 59 19 70 2 11 14 58 26 105 12 47 23 92
25 100 4 17 211 804 250 950 13 52 45 172 69 265 24 94 69 268 100 387 31 119
59 225 61 235 3 10 14 52 25 93 10 41 30 118 44 170 13 52 38 148 56 213 17
64 33 125 35 135 3 9 16 62 31 117 14 55 28 108 30 118 2 9 6 25 9 35 15 59
57 219 60 232 2 8 16 60 30 115 15 55 29 107 31 115 2 8 15 58 28 110 14 52
50 192 81 310 31 118 58 222 60 230 2 8 18 69 35 135 18 66 33 127 35 135 2 8
29 109 59 225 30 115 52 212 49 215 -6 7 -3404 6 -3408 0z"/>
<path d="M5908 4295 c-2 -1 -55 -5 -118 -8 -63 -4 -126 -9 -140 -11 -14 -3
-41 -7 -60 -10 -239 -36 -521 -141 -744 -275 -451 -273 -794 -722 -936 -1227
-17 -60 -33 -122 -35 -139 -3 -16 -10 -52 -15 -80 -19 -101 -21 -134 -25 -315
-4 -189 7 -316 40 -471 9 -41 18 -85 21 -99 21 -107 160 -440 226 -545 121
-188 201 -289 337 -425 233 -232 551 -425 842 -510 87 -26 179 -49 234 -59 33
-6 71 -13 84 -16 113 -22 446 -25 581 -6 206 29 345 66 515 134 390 157 711
413 954 760 33 48 61 90 61 93 0 2 11 22 25 44 23 37 88 158 91 170 1 6 31 77
44 105 27 58 80 229 104 335 16 72 21 106 31 195 4 33 9 71 11 85 10 64 4 324
-12 430 -3 25 -8 56 -9 70 -24 180 -94 399 -190 595 -58 118 -175 308 -222
360 -10 11 -36 43 -58 70 -48 60 -192 205 -259 260 -249 206 -593 378 -859
431 -10 2 -27 6 -37 9 -10 3 -31 8 -46 10 -67 10 -100 16 -121 20 -29 7 -310
24 -315 20z"/>
</g>
</svg>
